<?xml version="1.0" encoding="UTF-8"?>
<svg width="16px" height="14px" viewBox="0 0 16 14" version="1.1" xmlns="http://www.w3.org/2000/svg" xmlns:xlink="http://www.w3.org/1999/xlink">
    <!-- Generator: Sketch 55 (78076) - https://sketchapp.com -->
    <title>2. Icons / S / add_folder</title>
    <desc>Created with Sketch.</desc>
    <defs>
        <path d="M7,7.99543677 L7,6.99674055 C7,6.4444558 7.44771525,5.99674055 8,5.99674055 C8.55228475,5.99674055 9,6.4444558 9,6.99674055 L9,7.99543677 L10,7.99543677 C10.5522847,7.99543677 11,8.44315202 11,8.99543677 C11,9.54772152 10.5522847,9.99543677 10,9.99543677 L9,9.99543677 L9,10.994133 C9,11.5464177 8.55228475,11.994133 8,11.994133 C7.44771525,11.994133 7,11.5464177 7,10.994133 L7,9.99543677 L6,9.99543677 C5.44771525,9.99543677 5,9.54772152 5,8.99543677 C5,8.44315202 5.44771525,7.99543677 6,7.99543677 L7,7.99543677 Z M8.41402258,2.99869622 L14,2.99869622 C15.1049481,2.99869622 16,3.89378278 16,4.99804433 L16,12.9928292 C16,14.0970908 15.1049481,14.9921773 14,14.9921773 L2,14.9921773 C0.895051881,14.9921773 0,14.0970908 0,12.9928292 L0,2.99934811 C0,1.89508656 0.895051881,1 2,1 L6,1 C6.26510351,1 6.51935859,1.10526735 6.70687619,1.2926627 L8.41402258,2.99869622 Z M14,4.99869622 L8,4.99869622 C7.73489649,4.99869622 7.48064141,4.89342887 7.29312381,4.70603352 L5.58597742,3 L2,3 L2,12.9921773 L14,12.9921773 L14,4.99869622 Z" id="path-1"></path>
        <rect id="path-3" x="0" y="0" width="17" height="17"></rect>
    </defs>
    <g id="Page-1" stroke="none" stroke-width="1" fill="none" fill-rule="evenodd">
        <g id="Desktop-HD-Copy-2" transform="translate(-802.000000, -906.000000)">
            <g id="2.-Icons-/-S-/-add_folder" transform="translate(802.000000, 905.000000)">
                <mask id="mask-2" fill="white">
                    <use xlink:href="#path-1"></use>
                </mask>
                <use id="mask" fill="#3378E1" fill-rule="nonzero" xlink:href="#path-1"></use>
                <g id="Icons-/-Negative" mask="url(#mask-2)">
                    <mask id="mask-4" fill="white">
                        <use xlink:href="#path-3"></use>
                    </mask>
                    <use id="Background" fill="#F27171" fill-rule="evenodd" xlink:href="#path-3"></use>
                </g>
            </g>
        </g>
    </g>
</svg>