<?xml version="1.0" encoding="UTF-8"?>
<svg width="16px" height="16px" viewBox="0 0 16 16" version="1.1" xmlns="http://www.w3.org/2000/svg" xmlns:xlink="http://www.w3.org/1999/xlink">
    <!-- Generator: Sketch 55 (78076) - https://sketchapp.com -->
    <title>2. Icons / S / chat_wait</title>
    <desc>Created with Sketch.</desc>
    <defs>
        <path d="M5.46500984,12.9928292 L2,12.9928292 C0.894861176,12.9928292 0,12.0985514 0,10.9934811 L0,1.99934811 C0,0.894277824 0.894861176,0 2,0 L14,0 C15.1051388,0 16,0.894277824 16,1.99934811 L16,10.9934811 C16,12.0985514 15.1051388,12.9928292 14,12.9928292 L10.5349902,12.9928292 L8.83188329,15.5458242 C8.43602579,16.1392233 7.56397421,16.1392233 7.16811671,15.5458242 L5.46500984,12.9928292 Z M2,10.9928292 L6,10.9928292 C6.33424654,10.9928292 6.64639296,11.1598245 6.83188329,11.4378786 L8,13.1889114 L9.16811671,11.4378786 C9.35360704,11.1598245 9.66575346,10.9928292 10,10.9928292 L14,10.9928292 L14,2 L2,2 L2,10.9928292 Z M6,5.99674055 C6,6.54938005 5.553,6.99608866 5,6.99608866 C4.447,6.99608866 4,6.54938005 4,5.99674055 C4,5.44410104 4.447,4.99739244 5,4.99739244 C5.553,4.99739244 6,5.44410104 6,5.99674055 Z M9,5.99674055 C9,6.54938005 8.553,6.99608866 8,6.99608866 C7.447,6.99608866 7,6.54938005 7,5.99674055 C7,5.44410104 7.447,4.99739244 8,4.99739244 C8.553,4.99739244 9,5.44410104 9,5.99674055 Z M12,5.99674055 C12,6.54938005 11.553,6.99608866 11,6.99608866 C10.447,6.99608866 10,6.54938005 10,5.99674055 C10,5.44410104 10.447,4.99739244 11,4.99739244 C11.553,4.99739244 12,5.44410104 12,5.99674055 Z" id="path-1"></path>
        <rect id="path-3" x="0" y="0" width="17" height="17"></rect>
    </defs>
    <g id="Page-1" stroke="none" stroke-width="1" fill="none" fill-rule="evenodd">
        <g id="Desktop-HD-Copy" transform="translate(-201.000000, -1147.000000)">
            <g id="Запись-в-ленте" transform="translate(172.000000, 791.000000)">
                <g id="2.-Icons-/-S-/-chat_wait" transform="translate(29.000000, 356.000000)">
                    <mask id="mask-2" fill="white">
                        <use xlink:href="#path-1"></use>
                    </mask>
                    <use id="mask" fill="#3378E1" fill-rule="nonzero" xlink:href="#path-1"></use>
                    <g id="Icons-/-Negative" mask="url(#mask-2)">
                        <mask id="mask-4" fill="white">
                            <use xlink:href="#path-3"></use>
                        </mask>
                        <use id="Background" fill="#F27171" fill-rule="evenodd" xlink:href="#path-3"></use>
                    </g>
                </g>
            </g>
        </g>
    </g>
</svg>