<?xml version="1.0" encoding="UTF-8"?>
<svg width="20px" height="20px" viewBox="0 0 20 20" version="1.1" xmlns="http://www.w3.org/2000/svg" xmlns:xlink="http://www.w3.org/1999/xlink">
    <!-- Generator: Sketch 55 (78076) - https://sketchapp.com -->
    <title>2. Icons / M / more-horizontal</title>
    <desc>Created with Sketch.</desc>
    <defs>
        <path d="M6.29289322,16.2928932 C6.4804296,16.1053568 6.73478351,16 7,16 L19,16 C19.5522847,16 20,15.5522847 20,15 L20,5 C20,4.44771525 19.5522847,4 19,4 L5,4 C4.44771525,4 4,4.44771525 4,5 L4,18.5857864 L6.29289322,16.2928932 Z M7.41421356,18 L3.70710678,21.7071068 C3.07714192,22.3370716 2,21.8909049 2,21 L2,5 C2,3.34314575 3.34314575,2 5,2 L19,2 C20.6568542,2 22,3.34314575 22,5 L22,15 C22,16.6568542 20.6568542,18 19,18 L7.41421356,18 Z" id="path-1"></path>
        <rect id="path-3" x="0" y="0" width="26" height="26"></rect>
    </defs>
    <g id="Page-1" stroke="none" stroke-width="1" fill="none" fill-rule="evenodd">
        <g id="Desktop-HD-Copy-2" transform="translate(-923.000000, -995.000000)">
            <g id="Group-14" transform="translate(921.000000, 951.000000)">
                <g id="2.-Icons-/-M-/-message_square" transform="translate(0.000000, 42.000000)">
                    <mask id="mask-2" fill="white">
                        <use xlink:href="#path-1"></use>
                    </mask>
                    <use id="mask" fill="#000000" fill-rule="nonzero" xlink:href="#path-1"></use>
                    <g id="Icons-/-Negative" mask="url(#mask-2)">
                        <mask id="mask-4" fill="white">
                            <use xlink:href="#path-3"></use>
                        </mask>
                        <use id="Background" fill="#F27171" fill-rule="evenodd" xlink:href="#path-3"></use>
                    </g>
                </g>
            </g>
        </g>
    </g>
</svg>