<?xml version="1.0" encoding="UTF-8"?>
<svg width="32px" height="31px" viewBox="0 0 32 31" version="1.1" xmlns="http://www.w3.org/2000/svg" xmlns:xlink="http://www.w3.org/1999/xlink">
    <!-- Generator: Sketch 55 (78076) - https://sketchapp.com -->
    <title>Shape</title>
    <desc>Created with Sketch.</desc>
    <g id="Page-1" stroke="none" stroke-width="1" fill="none" fill-rule="evenodd">
        <g id="Notifications" transform="translate(-1335.000000, -1151.000000)" fill="#F27171" fill-rule="nonzero">
            <g id="Group-11" transform="translate(1319.000000, 1134.000000)">
                <path d="M24.0032653,35.6285714 C24.1981365,36.8609746 24.1167184,38.1212814 23.764898,39.3183673 C23.6814957,39.6039782 23.7745701,39.9118961 24.002216,40.1034863 C24.229862,40.2950766 24.5491502,40.3342091 24.8163265,40.2032653 C26.3738776,39.4163265 28.5779592,37.9697959 29.7567347,35.7265306 L31.3208163,35.7265306 C33.8051073,35.7282632 36.1882889,34.7428203 37.9458667,32.9870797 C39.7034445,31.231339 40.6913793,28.8491894 40.6922449,26.364898 L40.6922449,26.364898 C40.6922452,21.1940825 36.5014273,17.0018029 31.3306122,17 L25.364898,17 C20.1928076,17 16,21.1928076 16,26.364898 L16,26.364898 C16.0008466,31.0104118 19.4071178,34.9531254 24.0032653,35.6285714 Z M32.117551,25.0032653 C32.86956,25.0032653 33.4791837,25.612889 33.4791837,26.364898 C33.4791837,27.1169069 32.86956,27.7265306 32.117551,27.7265306 C31.3655421,27.7265306 30.7559184,27.1169069 30.7559184,26.364898 C30.7577135,25.6136338 31.3662869,25.0050604 32.117551,25.0032653 Z M28.3461224,25.0032653 C29.0981314,25.0032653 29.7077551,25.612889 29.7077551,26.364898 C29.7077551,27.1169069 29.0981314,27.7265306 28.3461224,27.7265306 C27.5941135,27.7265306 26.9844898,27.1169069 26.9844898,26.364898 C26.9862849,25.6136338 27.5948583,25.0050604 28.3461224,25.0032653 Z M24.5746939,25.0032653 C25.3267028,25.0032653 25.9363265,25.612889 25.9363265,26.364898 C25.9363265,27.1169069 25.3267028,27.7265306 24.5746939,27.7265306 C23.8226849,27.7265306 23.2130612,27.1169069 23.2130612,26.364898 C23.2148616,25.6123611 23.8254202,25.0032632 24.5779592,25.0032653 L24.5746939,25.0032653 Z M48,35.5665306 C47.9809464,39.3609328 45.4209758,42.6716318 41.7534694,43.644898 C41.7422779,44.1784223 41.8138767,44.7104562 41.9657143,45.2220408 C42.1575363,45.8767016 41.942942,46.5827933 41.4192797,47.0200052 C40.8956175,47.4572171 40.1625609,47.5423305 39.5526531,47.2367347 C38.3118367,46.6097959 36.6857143,45.5420408 35.6081633,43.9093878 L35.0497959,43.9093878 C32.7303065,43.9056843 30.5160449,42.9410086 28.9338776,41.244898 C28.6122647,40.777496 28.6846958,40.1444889 29.1035774,39.7618171 C29.5224589,39.3791454 30.1594185,39.3640844 30.5959184,39.7265306 C31.7425256,40.9695041 33.3587491,41.6733434 35.0497959,41.6661224 L36.244898,41.6661224 C36.6669058,41.6661146 37.0541603,41.8999761 37.2506122,42.2734694 C37.80308,43.239188 38.5889668,44.0508968 39.5363265,44.6342857 C39.458207,43.9421363 39.4724817,43.2426716 39.5787755,42.5542857 C39.6536891,42.0608423 40.0418136,41.6740425 40.5355102,41.6008163 C43.1223758,41.2299251 45.1833138,39.248276 45.6553553,36.6779432 C46.1273969,34.1076104 44.9050547,31.522987 42.6187755,30.2571429 C42.2653013,30.058824 42.0444795,29.6869936 42.0394916,29.2817165 C42.0345036,28.8764394 42.2461073,28.4992869 42.5945936,28.2923287 C42.9430799,28.0853705 43.3755054,28.0800485 43.7289796,28.2783673 C46.3642362,29.7583075 47.9967993,32.5441491 48,35.5665306 Z" id="Shape"></path>
            </g>
        </g>
    </g>
</svg>