<?xml version="1.0" encoding="UTF-8"?>
<svg width="21px" height="16px" viewBox="0 0 21 16" version="1.1" xmlns="http://www.w3.org/2000/svg" xmlns:xlink="http://www.w3.org/1999/xlink">
    <!-- Generator: Sketch 55 (78076) - https://sketchapp.com -->
    <title>2. Icons / M / navigation_02</title>
    <desc>Created with Sketch.</desc>
    <defs>
        <path d="M9,3.89263668 L3.88738097,17.7697455 L8.50386106,15.1317569 C8.81129373,14.956081 9.18870627,14.956081 9.49613894,15.1317569 L14.112619,17.7697455 L9,3.89263668 Z M9,17.1517511 L2.49613894,20.8682431 C1.68576618,21.3313133 0.738993574,20.5300951 1.06165688,19.6542946 L8.06165688,0.654294641 C8.38306478,-0.218098214 9.61693522,-0.218098214 9.93834312,0.654294641 L16.9383431,19.6542946 C17.2610064,20.5300951 16.3142338,21.3313133 15.5038611,20.8682431 L9,17.1517511 Z" id="path-1"></path>
        <rect id="path-3" x="0" y="0" width="26" height="26"></rect>
    </defs>
    <g id="Page-1" stroke="none" stroke-width="1" fill="none" fill-rule="evenodd">
        <g id="Desktop-HD-Copy-2" transform="translate(-831.000000, -906.000000)">
            <g id="2.-Icons-/-M-/-navigation_02" transform="translate(841.000000, 914.000000) rotate(-270.000000) translate(-841.000000, -914.000000) translate(832.000000, 903.000000)">
                <mask id="mask-2" fill="white">
                    <use xlink:href="#path-1"></use>
                </mask>
                <use id="mask" fill="#000000" fill-rule="nonzero" xlink:href="#path-1"></use>
                <g id="Icons-/-Negative" mask="url(#mask-2)">
                    <g transform="translate(-7.000000, -3.000000)">
                        <mask id="mask-4" fill="white">
                            <use xlink:href="#path-3"></use>
                        </mask>
                        <use id="Background" stroke="none" fill="#F27171" fill-rule="evenodd" xlink:href="#path-3"></use>
                    </g>
                </g>
            </g>
        </g>
    </g>
</svg>