<?xml version="1.0" encoding="UTF-8"?>
<svg width="363px" height="61px" viewBox="0 0 363 61" version="1.1" xmlns="http://www.w3.org/2000/svg" xmlns:xlink="http://www.w3.org/1999/xlink">
    <!-- Generator: Sketch 51.3 (57544) - http://www.bohemiancoding.com/sketch -->
    <title>top-logo</title>
    <desc>Created with Sketch.</desc>
    <defs></defs>
    <g id="Page-1" stroke="none" stroke-width="1" fill="none" fill-rule="evenodd">
        <g id="top-logo" transform="translate(-11.000000, -10.000000)">
            <g id="Group" fill-rule="nonzero">
                <g id="top-logo">
                    <g id="Page-1" transform="translate(42.756444, 40.113207) rotate(-21.000000) translate(-42.756444, -40.113207) translate(9.256444, 10.113207)">
                        <path d="M25.6443673,51.7119501 C16.1225495,46.4340233 12.6695578,34.392836 17.9474847,24.8704541 C23.2259756,15.3492004 35.2677271,11.897337 44.7889807,17.1741356 L41.7805173,22.6015548 C35.2513675,18.9821471 26.9948757,21.3503318 23.375468,27.8789175 C19.7560603,34.4086314 22.1236809,42.6656873 28.6528307,46.2845309 L25.6443673,51.7119501 Z" id="Fill-1" fill="#AE2C32"></path>
                        <path d="M1.94210671,44.7970667 C-3.82200718,27.0566957 5.92149447,7.93414265 23.6618655,2.1694602 C32.2562969,-0.623332015 41.4232735,0.0987457757 49.4741565,4.20094362 C57.5256082,8.30314146 63.4978169,15.2953562 66.2900406,23.889219 L52.7712661,28.2819536 C51.1519924,23.2984798 47.6894304,19.24461 43.0209416,16.8657332 C38.3530214,14.4868565 33.0375055,14.068961 28.0546002,15.6876661 C17.7675502,19.0302609 12.1182865,30.1184192 15.4603126,40.4049006 L1.94210671,44.7970667 Z" id="Fill-3" fill="#C1E7F6"></path>
                        <path d="M7.28274704,35.0508611 C8.2807552,20.2822853 20.7073664,9.1098362 34.9659145,10.1394689 L34.557469,17.0564142 C29.4124601,16.8214627 24.4445404,18.4681705 20.5793732,21.9458076 C16.7147699,25.4240284 14.3900312,30.2511615 14.0325525,35.5394113 L7.28274704,35.0508611 Z" id="Fill-10" fill="#42A5DC" opacity="0.9" transform="translate(21.124331, 22.806529) rotate(-6.000000) translate(-21.124331, -22.806529) "></path>
                        <path d="M26.1438043,56.5232087 C20.4248599,54.4126656 15.8593348,50.1682931 13.2876575,44.5733093 C10.7154203,38.9788934 10.4455426,32.7029244 12.5267367,26.9023387 C14.6084907,21.101753 18.7921556,16.470031 24.3072919,13.8613861 L26.2003555,17.9796713 C21.7697693,20.0754474 18.4086156,23.79616 16.7361575,28.45628 C15.0636994,33.1164 15.2809454,38.1587577 17.3470219,42.6536011 C19.4136582,47.1484444 23.0816439,50.5579143 27.6757245,52.2538459 C32.2692452,53.9503454 37.2401468,53.7294085 41.6712929,51.6336324 L43.5643564,55.7513497 C40.501636,57.2007862 37.2311882,57.9294801 33.9489821,57.9294801 C31.3213136,57.9294801 28.6863662,57.4626162 26.1438043,56.5232087 Z" id="Fill-6" fill="#42527F"></path>
                        <path d="M55.4266926,28.6784707 C51.9109258,17.1787993 39.6951819,10.6833538 28.1955105,14.1996727 L26.4199599,8.39159059 C33.54259,6.21466399 41.0853674,6.94012216 47.6614193,10.4371176 C54.2369191,13.9330089 59.0572961,19.7808422 61.2347748,26.9029201 L55.4266926,28.6784707 Z" id="Fill-8" fill="#FEFEFE"></path>
                        <path d="M27.4087934,9.249412 C28.8251938,9.08696335 32.0305683,8.91731235 34.280599,9.28115384 L33.3039039,16.1990991 C32.0290495,15.9570235 29.5978292,15.9730392 28.158086,16.2112857 C27.7917461,13.3952698 27.6993877,12.127768 27.4087934,9.249412 Z" id="Fill-10" fill-opacity="0.6" fill="#42A5DC" opacity="0.9" transform="translate(30.844696, 12.637980) rotate(-10.000000) translate(-30.844696, -12.637980) "></path>
                        <path d="M18.427814,48.6031988 C14.5829593,44.3561061 12.6311969,38.8741221 12.9318119,33.1665009 C13.2324269,27.4588796 15.7502172,22.2097577 20.0202913,18.3855959 C24.2903654,14.5614341 29.7986603,12.6168414 35.5405186,12.919173 C41.2790243,13.2181701 46.5565498,15.721854 50.4019633,19.9695024 L49.5710813,20.7125491 C45.9257053,16.6860919 40.9225329,14.3124551 35.4818484,14.0290192 C30.0400464,13.7422487 24.8161622,15.5856936 20.7679175,19.2114503 C16.7196727,22.837207 14.3331919,27.8134524 14.0476635,33.2248553 C13.7626939,38.6357025 15.6133201,43.8331391 19.2581373,47.8595963 L18.427814,48.6031988 Z" id="Fill-12" fill="#3F4B78"></path>
                        <path d="M33.4044369,51.1591379 C28.6403892,50.7424669 24.3233949,48.4952644 21.2493607,44.8320313 C18.1753266,41.1682556 16.712095,36.5273646 17.128766,31.763317 L19.2907897,31.9521211 C18.9245749,36.1389057 20.2103958,40.2177248 22.9122472,43.4371598 C25.6135561,46.6560522 29.4069989,48.6308995 33.5937835,48.9976568 L33.4044369,51.1591379 Z" id="Fill-14" fill="#DF2F29" transform="translate(25.326457, 41.461227) rotate(2.000000) translate(-25.326457, -41.461227) "></path>
                        <path d="M25.3568588,59.6660179 C11.1265127,54.2027023 3.99328651,38.1817156 9.45547375,23.9513695 L14.722462,25.9733153 C10.3750529,37.299371 16.0527489,50.0510564 27.3788045,54.3990296 L25.3568588,59.6660179 Z" id="Fill-16" fill="#1C1951"></path>
                    </g>
                </g>
            </g>
            <g id="Group-3" transform="translate(73.000000, 47.000000)" fill="#42527F" font-family="Helvetica-Bold, Helvetica" font-size="15" font-weight="bold">
                <g id="Э">
                    <text id="ЭЛЕКТРОННЫЙ-БЮДЖЕТ">
                        <tspan x="0" y="15">ЭЛЕКТРОННЫЙ БЮДЖЕТ</tspan>
                    </text>
                </g>
            </g>
            <g id="Group-3" transform="translate(73.000000, 23.000000)" fill="#42527F" font-family="Helvetica-Bold, Helvetica" font-size="15" font-weight="bold">
                <g id="Управление-националь">
                    <text id="Управление-национальными-проектами">
                        <tspan x="0" y="15">Управление национальными проектами</tspan>
                    </text>
                </g>
            </g>
        </g>
    </g>
</svg>